<?xml version="1.0" standalone="no"?>
<!DOCTYPE svg PUBLIC "-//W3C//DTD SVG 20010904//EN"
 "http://www.w3.org/TR/2001/REC-SVG-20010904/DTD/svg10.dtd">
<svg version="1.0" xmlns="http://www.w3.org/2000/svg"
 width="128.000000pt" height="128.000000pt" viewBox="0 0 128.000000 128.000000"
 preserveAspectRatio="xMidYMid meet">
<metadata>
Created by potrace 1.14, written by Peter Selinger 2001-2017
</metadata>
<g transform="translate(0.000000,128.000000) scale(0.100000,-0.100000)"
fill="#000000" stroke="none">
<path d="M0 640 l0 -640 640 0 640 0 0 640 0 640 -640 0 -640 0 0 -640z m593
412 c43 -19 44 -19 93 1 71 29 192 30 231 1 55 -42 68 -78 67 -194 -3 -255
-100 -616 -177 -660 -44 -25 -59 1 -67 114 -8 103 -25 144 -73 179 l-27 21
-28 -21 c-47 -35 -64 -76 -72 -179 -8 -113 -23 -139 -67 -114 -72 41 -157 341
-179 626 -10 137 24 220 99 244 45 13 150 4 200 -18z"/>
</g>
</svg>
